PathFileType	3	(X/Y/Z)	F:\ViconData\AntennenMessung\Messung1\Session1\ID24.trc
DataRate	CameraRate	NumFrames	NumMarkers	Units	OrigDataRate	OrigDataStartFrame	OrigNumFrames
120.0	120.0	4	70	mm	120.0	316	1260	
Frame#	Time	Ashort			Along			Atop			A4			Bshort			Blong			Btop			B4			Cshort			Clong			Ctop			C4			Dshort			Dlong			Dtop			D4			Eshort			Elong			Etop			E4			Fshort			Flong			Ftop			F4			Gshort			Glong			Gtop			G4			Hshort			Hlong			Htop			H4			I1			I2			I3			I4			I5			WandAshort			WandAlong			WandAtop			WandA4			WandA15			WandBshort			WandB4			WandB5			WandBtop			WandBlong			WandCshort			WandClong			WandCtop			WandC4			WandC5			Acenter			Aantenna			Bcenter			Bantenna			Ccenter			Cantenna			Dcenter			Dantenna			Ecenter			Eantenna			Fcenter			Fantenna			Gcenter			Gantenna			Hcenter			Hantenna			Icenter			Iantenna			
		X1	Y1	Z1	X2	Y2	Z2	X3	Y3	Z3	X4	Y4	Z4	X5	Y5	Z5	X6	Y6	Z6	X7	Y7	Z7	X8	Y8	Z8	X9	Y9	Z9	X10	Y10	Z10	X11	Y11	Z11	X12	Y12	Z12	X13	Y13	Z13	X14	Y14	Z14	X15	Y15	Z15	X16	Y16	Z16	X17	Y17	Z17	X18	Y18	Z18	X19	Y19	Z19	X20	Y20	Z20	X21	Y21	Z21	X22	Y22	Z22	X23	Y23	Z23	X24	Y24	Z24	X25	Y25	Z25	X26	Y26	Z26	X27	Y27	Z27	X28	Y28	Z28	X29	Y29	Z29	X30	Y30	Z30	X31	Y31	Z31	X32	Y32	Z32	X33	Y33	Z33	X34	Y34	Z34	X35	Y35	Z35	X36	Y36	Z36	X37	Y37	Z37	X38	Y38	Z38	X39	Y39	Z39	X40	Y40	Z40	X41	Y41	Z41	X42	Y42	Z42	X43	Y43	Z43	X44	Y44	Z44	X45	Y45	Z45	X46	Y46	Z46	X47	Y47	Z47	X48	Y48	Z48	X49	Y49	Z49	X50	Y50	Z50	X51	Y51	Z51	X52	Y52	Z52	X53	Y53	Z53	X54	Y54	Z54	X55	Y55	Z55	X56	Y56	Z56	X57	Y57	Z57	X58	Y58	Z58	X59	Y59	Z59	X60	Y60	Z60	X61	Y61	Z61	X62	Y62	Z62	X63	Y63	Z63	X64	Y64	Z64	X65	Y65	Z65	X66	Y66	Z66	X67	Y67	Z67	X68	Y68	Z68	X69	Y69	Z69	X70	Y70	Z70	
316	2.625	-1038.1949	214.52644	-1644.0154	-1109.4225	204.33066	-1599.2898	-1065.1541	172.35127	-1624.829	-1054.1439	262.33804	-1634.8606	-1352.556	235.33557	1003.3964	-1281.4452	227.28445	1052.355	-1322.6094	193.68654	1021.0277	-1284.3308	287.99457	1052.6395	814.10638	187.71622	1209.4922	892.14075	178.61552	1179.1211	844.38898	145.5818	1198.2919	860.94342	292.58786	1168.472	1115.7782	209.98172	-1401.7568	1056.2388	194.33057	-1460.4425	1094.7825	162.04385	-1423.9008	1069.6691	239.43811	-1426.1915	-1204.6754	1686.0507	-1562.842	-1129.1718	1688.2906	-1605.8599	-1173.2137	1724.2333	-1581.759	-1134.0264	1580.9945	-1603.8684	-1239.5547	1699.1071	1119.5842	-1309.3236	1698.7943	1072.0006	-1270.4344	1736.3458	1096.9802	-1244.837	1593.786	1106.2622	988.91864	1664.2157	1162.1552	957.67859	1700.2839	1183.8845	922.24036	1662.0953	1215.074	939.82312	1659.458	1159.8066	999.01337	1668.4554	-1579.4238	1058.8888	1670.1743	-1518.6079	1024.947	1708.0769	-1551.0958	1059.2517	1672.1866	-1585.4044	-180.48277	1639.171	-226.21745	-266.51688	1637.9614	-229.16948	-219.22562	1675.373	-228.88367	-217.29172	1636.5348	-259.35748	-220.57294	1640.9496	-180.24872																																														-1070.033	209.96898	-1624.0233	-1075.0481	248.63634	-1623.1953	-1321.0789	231.77177	1025.0676	-1319.5216	270.52325	1029.1783	848.05737	183.7567	1196.2784	851.78278	222.52446	1194.2336	1088.6182	202.84216	-1428.5273	1082.828	241.16431	-1432.8733	-1171.9536	1687.0212	-1581.485	-1170.6338	1648.0447	-1581.1981	-1271.0387	1698.9659	1098.1115	-1271.6686	1659.9888	1099.2914	953.04865	1705.6294	1187.1049	973.00037	1733.8224	1168.9918	1026.489	1669.2441	-1551.5164	1028.0364	1630.2771	-1551.9385	-218.75548	1638.6328	-227.53065	-218.25682	1599.6625	-226.09554
317	2.6333333	-1038.1987	214.49121	-1644.0094	-1109.4215	204.28841	-1599.2903	-1064.043	172.54677	-1625.3544	-1054.1204	262.31152	-1634.8392	-1352.6083	235.26852	1003.3652	-1281.4022	227.31758	1052.3365	-1322.5995	193.71373	1020.9503	-1284.4642	287.95947	1052.7828	814.20428	187.65567	1209.4382	892.2417	178.76317	1179.0743	844.44171	145.48795	1198.427	861.02045	292.67392	1168.4222	1115.7271	209.68828	-1401.5834	1056.2451	194.06	-1460.1785	1094.7382	162.00854	-1423.896	1069.6888	239.44737	-1426.2346	-1204.6978	1686.0635	-1562.8232	-1129.1715	1688.2859	-1605.8536	-1173.1748	1724.2759	-1581.8235	-1134.0172	1580.9905	-1603.8558	-1239.5496	1699.0994	1119.5781	-1309.3208	1698.7767	1071.9971	-1270.4009	1736.3051	1096.9625	-1244.9332	1593.6434	1106.3425	988.93701	1664.2371	1162.1689	957.68524	1700.2405	1183.9404	922.3031	1662.1779	1215.0654	939.85217	1659.4656	1159.7705	999.00885	1668.4792	-1579.4442	1058.8855	1670.1736	-1518.6189	1024.932	1708.0756	-1551.092	1059.2574	1672.1812	-1585.4155	-180.73114	1638.9921	-226.09406	-266.50644	1637.9413	-229.16257	-219.22304	1675.3479	-228.90746	-217.29778	1636.5327	-259.33655	-220.53496	1640.9094	-180.2623																																														-1068.9927	210.0799	-1624.6744	-1074.0908	248.73889	-1623.9741	-1321.1412	231.75488	1025.0063	-1319.6559	270.50693	1029.1381	847.97925	183.80695	1196.2965	851.55896	222.58243	1194.1406	1088.5155	202.53871	-1428.3892	1082.6324	240.85767	-1432.6373	-1171.8999	1687.0286	-1581.5095	-1170.5659	1648.0527	-1581.1809	-1271.0166	1698.9537	1098.1188	-1271.6592	1659.9778	1099.3254	952.98639	1705.6536	1187.2136	972.91028	1733.8842	1169.1285	1026.4817	1669.2566	-1551.536	1028.0372	1630.2902	-1551.9817	-218.82382	1638.5253	-227.45676	-218.40137	1599.5577	-225.9216
318	2.6416667	-1038.1952	214.54939	-1644.0271	-1109.4132	204.27968	-1599.2963	-1064.2386	172.64473	-1624.9775	-1054.1458	262.35187	-1634.8871	-1352.724	234.99141	1003.4286	-1281.3903	227.33884	1052.2998	-1322.5973	193.82886	1020.9902	-1284.5093	287.88608	1052.6973	814.09149	187.65059	1209.3628	892.10956	178.65167	1179.0787	844.48376	145.36891	1198.5085	861.04376	292.52954	1168.4994	1115.7384	209.70911	-1401.5996	1056.2161	194.11794	-1460.2264	1094.7528	162.04576	-1423.9373	1069.6833	239.4455	-1426.2021	-1204.6936	1686.0607	-1562.8323	-1129.1636	1688.2966	-1605.8728	-1173.1783	1724.2949	-1581.8358	-1134.0377	1581.0081	-1603.8295	-1239.5717	1699.1307	1119.5908	-1309.2594	1698.6763	1071.9532	-1270.4341	1736.3427	1096.9785	-1244.9409	1593.5717	1106.4681	988.95538	1664.2085	1162.1768	957.63715	1700.2539	1183.9595	922.24054	1662.137	1215.0533	939.81445	1659.4579	1159.7822	999.01514	1668.4606	-1579.4219	1058.8811	1670.1755	-1518.6157	1024.9315	1708.074	-1551.0979	1059.2563	1672.1776	-1585.4116	-180.5094	1639.1433	-226.19707	-266.49731	1637.9257	-229.16881	-219.2308	1675.3644	-228.89487	-217.30336	1636.5231	-259.34464	-220.5701	1640.9482	-180.26726																																														-1069.3202	210.0611	-1624.4779	-1074.5682	248.70294	-1623.9617	-1321.2736	231.61745	1024.9755	-1319.9159	270.37885	1029.0632	848.01178	183.73808	1196.1959	851.57635	222.5045	1193.8595	1088.5294	202.58205	-1428.399	1082.6461	240.90428	-1432.6173	-1171.896	1687.0315	-1581.5217	-1170.5549	1648.056	-1581.1931	-1270.9735	1698.9259	1098.125	-1271.5356	1659.9482	1099.3191	952.95374	1705.6442	1187.2169	972.88678	1733.8806	1169.151	1026.4791	1669.2473	-1551.5264	1028.0323	1630.2806	-1551.9567	-218.75771	1638.6017	-227.51892	-218.25623	1599.6322	-226.06036
319	2.65	-1038.2061	214.53719	-1644.0277	-1109.4248	204.34984	-1599.3119	-1064.4515	172.93631	-1624.9174	-1054.1381	262.36578	-1634.8684	-1352.5974	235.32243	1003.509	-1281.4562	227.31799	1052.3004	-1322.6531	193.81105	1021.0001	-1284.4161	287.98892	1052.7219	814.12909	187.56569	1209.4128	892.17865	178.71738	1179.132	844.38055	145.5816	1198.3556	860.99536	292.54724	1168.5072	1115.7744	209.96333	-1401.746	1056.2394	194.14258	-1460.2651	1094.6646	162.19963	-1423.952	1069.7015	239.47182	-1426.209	-1204.6888	1686.0569	-1562.8326	-1129.1581	1688.3094	-1605.8856	-1173.1681	1724.2766	-1581.8247	-1134.0151	1581.002	-1603.8737	-1239.5444	1699.0896	1119.5776	-1309.3246	1698.778	1072.0012	-1270.4131	1736.3115	1096.964	-1244.9283	1593.548	1106.4679	988.94379	1664.2291	1162.1736	957.65094	1700.3287	1183.8805	922.25177	1662.179	1215.0659	939.82971	1659.4664	1159.7804	999.01495	1668.4697	-1579.4437	1058.8911	1670.1763	-1518.6212	1024.9351	1708.0674	-1551.0972	1059.2437	1672.1715	-1585.407	-180.72232	1638.9913	-226.10626	-266.28339	1637.7385	-229.20634	-219.21524	1675.3593	-228.89844	-217.2964	1636.5291	-259.34702	-220.5715	1640.9315	-180.26741																																														-1069.4463	210.06848	-1624.4128	-1074.645	248.71686	-1623.8879	-1321.1678	231.78613	1025.0646	-1319.6523	270.53534	1029.212	847.91101	183.73589	1196.3064	851.49927	222.51459	1194.2238	1088.4619	202.70537	-1428.5923	1082.5961	241.01115	-1432.9807	-1171.8887	1687.0349	-1581.5288	-1170.5499	1648.0591	-1581.2192	-1271.0286	1698.949	1098.1116	-1271.6705	1659.9725	1099.3088	953.01996	1705.6708	1187.0927	972.96204	1733.8595	1168.9623	1026.4877	1669.2527	-1551.5366	1028.0465	1630.2864	-1551.9779	-218.72581	1638.4348	-227.4832	-218.20929	1599.4668	-225.98965
